<mxfile host="app.diagrams.net" agent="Mozilla/5.0 (Windows NT 10.0; Win64; x64) AppleWebKit/537.36 (KHTML, like Gecko) Chrome/130.0.0.0 Safari/537.36" version="24.8.3" pages="2">
  <diagram name="Page-1" id="UkhxAdNoP5g0muFBqI-Y">
    <mxGraphModel dx="1050" dy="530" grid="1" gridSize="10" guides="1" tooltips="1" connect="1" arrows="1" fold="1" page="1" pageScale="1" pageWidth="827" pageHeight="1169" math="0" shadow="0">
      <root>
        <mxCell id="0" />
        <mxCell id="1" parent="0" />
        <mxCell id="fMKCCRlmuBBmtylVJ3e9-1" style="edgeStyle=orthogonalEdgeStyle;rounded=0;orthogonalLoop=1;jettySize=auto;html=1;" edge="1" parent="1" source="fMKCCRlmuBBmtylVJ3e9-19" target="fMKCCRlmuBBmtylVJ3e9-4">
          <mxGeometry relative="1" as="geometry">
            <Array as="points">
              <mxPoint x="180" y="190" />
              <mxPoint x="180" y="190" />
            </Array>
          </mxGeometry>
        </mxCell>
        <mxCell id="fMKCCRlmuBBmtylVJ3e9-2" style="edgeStyle=orthogonalEdgeStyle;rounded=0;orthogonalLoop=1;jettySize=auto;html=1;exitX=1;exitY=0.75;exitDx=0;exitDy=0;" edge="1" parent="1" source="fMKCCRlmuBBmtylVJ3e9-3">
          <mxGeometry relative="1" as="geometry">
            <mxPoint x="277" y="405" as="targetPoint" />
            <Array as="points">
              <mxPoint x="277" y="405" />
            </Array>
          </mxGeometry>
        </mxCell>
        <mxCell id="fMKCCRlmuBBmtylVJ3e9-3" value="Mass-Spring-Damper" style="rounded=0;whiteSpace=wrap;html=1;" vertex="1" parent="1">
          <mxGeometry x="120" y="360" width="180" height="60" as="geometry" />
        </mxCell>
        <mxCell id="fMKCCRlmuBBmtylVJ3e9-4" value="System Characteristics&amp;nbsp;&lt;div&gt;(LUT)&lt;/div&gt;" style="rounded=0;whiteSpace=wrap;html=1;" vertex="1" parent="1">
          <mxGeometry x="120" y="260" width="180" height="80" as="geometry" />
        </mxCell>
        <mxCell id="fMKCCRlmuBBmtylVJ3e9-5" value="FiFo&lt;div&gt;&lt;font style=&quot;font-size: 8px;&quot;&gt;(Dynamic Syst Input)&lt;/font&gt;&lt;/div&gt;" style="rounded=0;whiteSpace=wrap;html=1;" vertex="1" parent="1">
          <mxGeometry x="120" y="200" width="180" height="40" as="geometry" />
        </mxCell>
        <mxCell id="fMKCCRlmuBBmtylVJ3e9-6" value="Linkage&lt;div&gt;Master&lt;/div&gt;" style="rounded=0;whiteSpace=wrap;html=1;fillColor=#f5f5f5;fontColor=#333333;strokeColor=#666666;textOpacity=50;" vertex="1" parent="1">
          <mxGeometry x="320" y="200" width="80" height="220" as="geometry" />
        </mxCell>
        <mxCell id="fMKCCRlmuBBmtylVJ3e9-7" style="edgeStyle=orthogonalEdgeStyle;rounded=0;orthogonalLoop=1;jettySize=auto;html=1;entryX=0.5;entryY=1;entryDx=0;entryDy=0;" edge="1" parent="1" source="fMKCCRlmuBBmtylVJ3e9-8" target="fMKCCRlmuBBmtylVJ3e9-15">
          <mxGeometry relative="1" as="geometry" />
        </mxCell>
        <mxCell id="fMKCCRlmuBBmtylVJ3e9-8" value="Force Sensor" style="rounded=0;whiteSpace=wrap;html=1;" vertex="1" parent="1">
          <mxGeometry x="120" y="540" width="120" height="60" as="geometry" />
        </mxCell>
        <mxCell id="fMKCCRlmuBBmtylVJ3e9-9" value="Motor Position Controller" style="rounded=0;whiteSpace=wrap;html=1;" vertex="1" parent="1">
          <mxGeometry x="280" y="500" width="120" height="100" as="geometry" />
        </mxCell>
        <mxCell id="fMKCCRlmuBBmtylVJ3e9-10" style="edgeStyle=orthogonalEdgeStyle;rounded=0;orthogonalLoop=1;jettySize=auto;html=1;exitX=0.25;exitY=1;exitDx=0;exitDy=0;entryX=0.25;entryY=0;entryDx=0;entryDy=0;" edge="1" parent="1" source="fMKCCRlmuBBmtylVJ3e9-4" target="fMKCCRlmuBBmtylVJ3e9-3">
          <mxGeometry relative="1" as="geometry">
            <Array as="points">
              <mxPoint x="165" y="340" />
              <mxPoint x="165" y="340" />
            </Array>
          </mxGeometry>
        </mxCell>
        <mxCell id="fMKCCRlmuBBmtylVJ3e9-11" style="edgeStyle=orthogonalEdgeStyle;rounded=0;orthogonalLoop=1;jettySize=auto;html=1;exitX=0.25;exitY=0;exitDx=0;exitDy=0;entryX=0.586;entryY=1;entryDx=0;entryDy=0;entryPerimeter=0;" edge="1" parent="1" source="fMKCCRlmuBBmtylVJ3e9-3" target="fMKCCRlmuBBmtylVJ3e9-4">
          <mxGeometry relative="1" as="geometry">
            <Array as="points">
              <mxPoint x="225" y="360" />
              <mxPoint x="225" y="340" />
            </Array>
          </mxGeometry>
        </mxCell>
        <mxCell id="fMKCCRlmuBBmtylVJ3e9-12" style="edgeStyle=orthogonalEdgeStyle;rounded=0;orthogonalLoop=1;jettySize=auto;html=1;entryX=0.212;entryY=1.006;entryDx=0;entryDy=0;entryPerimeter=0;exitX=0.138;exitY=0.039;exitDx=0;exitDy=0;exitPerimeter=0;" edge="1" parent="1" source="fMKCCRlmuBBmtylVJ3e9-14" target="fMKCCRlmuBBmtylVJ3e9-3">
          <mxGeometry relative="1" as="geometry">
            <Array as="points">
              <mxPoint x="159" y="439" />
              <mxPoint x="158" y="439" />
            </Array>
          </mxGeometry>
        </mxCell>
        <mxCell id="fMKCCRlmuBBmtylVJ3e9-13" style="edgeStyle=orthogonalEdgeStyle;rounded=0;orthogonalLoop=1;jettySize=auto;html=1;exitX=0.75;exitY=1;exitDx=0;exitDy=0;entryX=0.5;entryY=0;entryDx=0;entryDy=0;" edge="1" parent="1" source="fMKCCRlmuBBmtylVJ3e9-14" target="fMKCCRlmuBBmtylVJ3e9-9">
          <mxGeometry relative="1" as="geometry" />
        </mxCell>
        <mxCell id="fMKCCRlmuBBmtylVJ3e9-14" value="Model Protections&lt;div style=&quot;font-size: 8px;&quot;&gt;&lt;font style=&quot;font-size: 8px;&quot;&gt;(Over-force, Pose Limits, ...)&lt;/font&gt;&lt;/div&gt;" style="rounded=0;whiteSpace=wrap;html=1;" vertex="1" parent="1">
          <mxGeometry x="120" y="440" width="280" height="40" as="geometry" />
        </mxCell>
        <mxCell id="fMKCCRlmuBBmtylVJ3e9-15" value="Filters" style="rounded=0;whiteSpace=wrap;html=1;" vertex="1" parent="1">
          <mxGeometry x="120" y="500" width="120" height="20" as="geometry" />
        </mxCell>
        <mxCell id="fMKCCRlmuBBmtylVJ3e9-16" value="&lt;font style=&quot;font-size: 8px;&quot;&gt;Pos&lt;/font&gt;" style="text;html=1;align=center;verticalAlign=middle;whiteSpace=wrap;rounded=0;" vertex="1" parent="1">
          <mxGeometry x="210" y="334" width="60" height="30" as="geometry" />
        </mxCell>
        <mxCell id="fMKCCRlmuBBmtylVJ3e9-17" value="&lt;font style=&quot;font-size: 8px;&quot;&gt;Syst Const&lt;/font&gt;" style="text;html=1;align=center;verticalAlign=middle;whiteSpace=wrap;rounded=0;" vertex="1" parent="1">
          <mxGeometry x="110" y="334" width="60" height="30" as="geometry" />
        </mxCell>
        <mxCell id="fMKCCRlmuBBmtylVJ3e9-18" style="edgeStyle=orthogonalEdgeStyle;rounded=0;orthogonalLoop=1;jettySize=auto;html=1;exitX=0.003;exitY=0.797;exitDx=0;exitDy=0;entryX=1;entryY=0.25;entryDx=0;entryDy=0;exitPerimeter=0;" edge="1" parent="1" source="fMKCCRlmuBBmtylVJ3e9-6" target="fMKCCRlmuBBmtylVJ3e9-3">
          <mxGeometry relative="1" as="geometry">
            <Array as="points">
              <mxPoint x="320" y="375" />
            </Array>
          </mxGeometry>
        </mxCell>
        <mxCell id="fMKCCRlmuBBmtylVJ3e9-19" value="Comms" style="rounded=0;whiteSpace=wrap;html=1;" vertex="1" parent="1">
          <mxGeometry x="120" y="120" width="280" height="50" as="geometry" />
        </mxCell>
        <mxCell id="fMKCCRlmuBBmtylVJ3e9-20" style="edgeStyle=orthogonalEdgeStyle;rounded=0;orthogonalLoop=1;jettySize=auto;html=1;exitX=1;exitY=0.75;exitDx=0;exitDy=0;entryX=-0.005;entryY=0.934;entryDx=0;entryDy=0;entryPerimeter=0;" edge="1" parent="1" source="fMKCCRlmuBBmtylVJ3e9-3" target="fMKCCRlmuBBmtylVJ3e9-6">
          <mxGeometry relative="1" as="geometry" />
        </mxCell>
        <mxCell id="fMKCCRlmuBBmtylVJ3e9-21" style="edgeStyle=orthogonalEdgeStyle;rounded=0;orthogonalLoop=1;jettySize=auto;html=1;exitX=0.75;exitY=1;exitDx=0;exitDy=0;" edge="1" parent="1" source="fMKCCRlmuBBmtylVJ3e9-3">
          <mxGeometry relative="1" as="geometry">
            <mxPoint x="255" y="439" as="targetPoint" />
            <Array as="points">
              <mxPoint x="255" y="430" />
              <mxPoint x="255" y="430" />
            </Array>
          </mxGeometry>
        </mxCell>
        <mxCell id="fMKCCRlmuBBmtylVJ3e9-22" style="edgeStyle=orthogonalEdgeStyle;rounded=0;orthogonalLoop=1;jettySize=auto;html=1;entryX=0.214;entryY=1;entryDx=0;entryDy=0;entryPerimeter=0;" edge="1" parent="1" source="fMKCCRlmuBBmtylVJ3e9-15" target="fMKCCRlmuBBmtylVJ3e9-14">
          <mxGeometry relative="1" as="geometry" />
        </mxCell>
        <mxCell id="fMKCCRlmuBBmtylVJ3e9-23" value="&lt;font style=&quot;font-size: 8px;&quot;&gt;Force&lt;/font&gt;" style="text;html=1;align=center;verticalAlign=middle;whiteSpace=wrap;rounded=0;" vertex="1" parent="1">
          <mxGeometry x="110" y="414" width="60" height="30" as="geometry" />
        </mxCell>
        <mxCell id="fMKCCRlmuBBmtylVJ3e9-24" value="&lt;font style=&quot;font-size: 8px;&quot;&gt;Pos&lt;/font&gt;" style="text;html=1;align=center;verticalAlign=middle;whiteSpace=wrap;rounded=0;" vertex="1" parent="1">
          <mxGeometry x="240" y="414" width="60" height="30" as="geometry" />
        </mxCell>
      </root>
    </mxGraphModel>
  </diagram>
  <diagram id="Lgpz1RuwRJ-S2DTu7vDj" name="Page-2">
    <mxGraphModel dx="1050" dy="530" grid="1" gridSize="10" guides="1" tooltips="1" connect="1" arrows="1" fold="1" page="1" pageScale="1" pageWidth="827" pageHeight="1169" math="0" shadow="0">
      <root>
        <mxCell id="0" />
        <mxCell id="1" parent="0" />
        <mxCell id="e_vF5gCEXvzMb2eq-UHG-1" style="edgeStyle=orthogonalEdgeStyle;rounded=0;orthogonalLoop=1;jettySize=auto;html=1;" edge="1" parent="1" source="e_vF5gCEXvzMb2eq-UHG-2" target="e_vF5gCEXvzMb2eq-UHG-5">
          <mxGeometry relative="1" as="geometry">
            <Array as="points">
              <mxPoint x="180" y="190" />
              <mxPoint x="180" y="190" />
            </Array>
          </mxGeometry>
        </mxCell>
        <mxCell id="Dk59JAwr19zSfOPfUQcK-2" style="edgeStyle=orthogonalEdgeStyle;rounded=0;orthogonalLoop=1;jettySize=auto;html=1;exitX=1;exitY=0.75;exitDx=0;exitDy=0;" edge="1" parent="1" source="e_vF5gCEXvzMb2eq-UHG-4">
          <mxGeometry relative="1" as="geometry">
            <mxPoint x="277" y="405" as="targetPoint" />
            <Array as="points">
              <mxPoint x="277" y="405" />
            </Array>
          </mxGeometry>
        </mxCell>
        <mxCell id="e_vF5gCEXvzMb2eq-UHG-4" value="Mass-Spring-Damper" style="rounded=0;whiteSpace=wrap;html=1;" vertex="1" parent="1">
          <mxGeometry x="120" y="360" width="180" height="60" as="geometry" />
        </mxCell>
        <mxCell id="e_vF5gCEXvzMb2eq-UHG-5" value="System Characteristics&amp;nbsp;&lt;div&gt;(LUT)&lt;/div&gt;" style="rounded=0;whiteSpace=wrap;html=1;" vertex="1" parent="1">
          <mxGeometry x="120" y="260" width="180" height="80" as="geometry" />
        </mxCell>
        <mxCell id="e_vF5gCEXvzMb2eq-UHG-6" value="FiFo&lt;div&gt;&lt;font style=&quot;font-size: 8px;&quot;&gt;(Dynamic Syst Input)&lt;/font&gt;&lt;/div&gt;" style="rounded=0;whiteSpace=wrap;html=1;" vertex="1" parent="1">
          <mxGeometry x="120" y="200" width="180" height="40" as="geometry" />
        </mxCell>
        <mxCell id="Dk59JAwr19zSfOPfUQcK-5" style="edgeStyle=orthogonalEdgeStyle;rounded=0;orthogonalLoop=1;jettySize=auto;html=1;entryX=0.5;entryY=0;entryDx=0;entryDy=0;shape=flexArrow;startArrow=block;exitX=0.5;exitY=0;exitDx=0;exitDy=0;" edge="1" parent="1" source="e_vF5gCEXvzMb2eq-UHG-7" target="Dk59JAwr19zSfOPfUQcK-22">
          <mxGeometry relative="1" as="geometry">
            <mxPoint x="740" y="200" as="targetPoint" />
            <Array as="points">
              <mxPoint x="360" y="80" />
              <mxPoint x="720" y="80" />
            </Array>
          </mxGeometry>
        </mxCell>
        <mxCell id="e_vF5gCEXvzMb2eq-UHG-7" value="Linkage&lt;div&gt;Master&lt;/div&gt;" style="rounded=0;whiteSpace=wrap;html=1;" vertex="1" parent="1">
          <mxGeometry x="320" y="200" width="80" height="220" as="geometry" />
        </mxCell>
        <mxCell id="Dk59JAwr19zSfOPfUQcK-16" style="edgeStyle=orthogonalEdgeStyle;rounded=0;orthogonalLoop=1;jettySize=auto;html=1;entryX=0.5;entryY=1;entryDx=0;entryDy=0;" edge="1" parent="1" source="e_vF5gCEXvzMb2eq-UHG-8" target="e_vF5gCEXvzMb2eq-UHG-14">
          <mxGeometry relative="1" as="geometry" />
        </mxCell>
        <mxCell id="e_vF5gCEXvzMb2eq-UHG-8" value="Force Sensor" style="rounded=0;whiteSpace=wrap;html=1;" vertex="1" parent="1">
          <mxGeometry x="120" y="540" width="120" height="60" as="geometry" />
        </mxCell>
        <mxCell id="e_vF5gCEXvzMb2eq-UHG-9" value="Motor Position Controller" style="rounded=0;whiteSpace=wrap;html=1;" vertex="1" parent="1">
          <mxGeometry x="280" y="500" width="120" height="100" as="geometry" />
        </mxCell>
        <mxCell id="e_vF5gCEXvzMb2eq-UHG-10" style="edgeStyle=orthogonalEdgeStyle;rounded=0;orthogonalLoop=1;jettySize=auto;html=1;exitX=0.25;exitY=1;exitDx=0;exitDy=0;entryX=0.25;entryY=0;entryDx=0;entryDy=0;" edge="1" parent="1" source="e_vF5gCEXvzMb2eq-UHG-5" target="e_vF5gCEXvzMb2eq-UHG-4">
          <mxGeometry relative="1" as="geometry">
            <Array as="points">
              <mxPoint x="165" y="340" />
              <mxPoint x="165" y="340" />
            </Array>
          </mxGeometry>
        </mxCell>
        <mxCell id="e_vF5gCEXvzMb2eq-UHG-11" style="edgeStyle=orthogonalEdgeStyle;rounded=0;orthogonalLoop=1;jettySize=auto;html=1;exitX=0.25;exitY=0;exitDx=0;exitDy=0;entryX=0.586;entryY=1;entryDx=0;entryDy=0;entryPerimeter=0;" edge="1" parent="1" source="e_vF5gCEXvzMb2eq-UHG-4" target="e_vF5gCEXvzMb2eq-UHG-5">
          <mxGeometry relative="1" as="geometry">
            <Array as="points">
              <mxPoint x="225" y="360" />
              <mxPoint x="225" y="340" />
            </Array>
          </mxGeometry>
        </mxCell>
        <mxCell id="e_vF5gCEXvzMb2eq-UHG-12" style="edgeStyle=orthogonalEdgeStyle;rounded=0;orthogonalLoop=1;jettySize=auto;html=1;entryX=0.212;entryY=1.006;entryDx=0;entryDy=0;entryPerimeter=0;exitX=0.138;exitY=0.039;exitDx=0;exitDy=0;exitPerimeter=0;" edge="1" parent="1" source="e_vF5gCEXvzMb2eq-UHG-13" target="e_vF5gCEXvzMb2eq-UHG-4">
          <mxGeometry relative="1" as="geometry">
            <Array as="points">
              <mxPoint x="159" y="439" />
              <mxPoint x="158" y="439" />
            </Array>
          </mxGeometry>
        </mxCell>
        <mxCell id="Dk59JAwr19zSfOPfUQcK-13" style="edgeStyle=orthogonalEdgeStyle;rounded=0;orthogonalLoop=1;jettySize=auto;html=1;exitX=0.75;exitY=1;exitDx=0;exitDy=0;entryX=0.5;entryY=0;entryDx=0;entryDy=0;" edge="1" parent="1" source="e_vF5gCEXvzMb2eq-UHG-13" target="e_vF5gCEXvzMb2eq-UHG-9">
          <mxGeometry relative="1" as="geometry" />
        </mxCell>
        <mxCell id="e_vF5gCEXvzMb2eq-UHG-13" value="Model Protections&lt;div style=&quot;font-size: 8px;&quot;&gt;&lt;font style=&quot;font-size: 8px;&quot;&gt;(Over-force, Pose Limits, ...)&lt;/font&gt;&lt;/div&gt;" style="rounded=0;whiteSpace=wrap;html=1;" vertex="1" parent="1">
          <mxGeometry x="120" y="440" width="280" height="40" as="geometry" />
        </mxCell>
        <mxCell id="e_vF5gCEXvzMb2eq-UHG-14" value="Filters" style="rounded=0;whiteSpace=wrap;html=1;" vertex="1" parent="1">
          <mxGeometry x="120" y="500" width="120" height="20" as="geometry" />
        </mxCell>
        <mxCell id="e_vF5gCEXvzMb2eq-UHG-15" value="&lt;font style=&quot;font-size: 8px;&quot;&gt;Pos&lt;/font&gt;" style="text;html=1;align=center;verticalAlign=middle;whiteSpace=wrap;rounded=0;" vertex="1" parent="1">
          <mxGeometry x="210" y="334" width="60" height="30" as="geometry" />
        </mxCell>
        <mxCell id="e_vF5gCEXvzMb2eq-UHG-16" value="&lt;font style=&quot;font-size: 8px;&quot;&gt;Syst Const&lt;/font&gt;" style="text;html=1;align=center;verticalAlign=middle;whiteSpace=wrap;rounded=0;" vertex="1" parent="1">
          <mxGeometry x="110" y="334" width="60" height="30" as="geometry" />
        </mxCell>
        <mxCell id="Dk59JAwr19zSfOPfUQcK-1" style="edgeStyle=orthogonalEdgeStyle;rounded=0;orthogonalLoop=1;jettySize=auto;html=1;exitX=0.003;exitY=0.797;exitDx=0;exitDy=0;entryX=1;entryY=0.25;entryDx=0;entryDy=0;exitPerimeter=0;" edge="1" parent="1" source="e_vF5gCEXvzMb2eq-UHG-7" target="e_vF5gCEXvzMb2eq-UHG-4">
          <mxGeometry relative="1" as="geometry">
            <Array as="points">
              <mxPoint x="320" y="375" />
            </Array>
          </mxGeometry>
        </mxCell>
        <mxCell id="e_vF5gCEXvzMb2eq-UHG-2" value="Comms" style="rounded=0;whiteSpace=wrap;html=1;" vertex="1" parent="1">
          <mxGeometry x="120" y="120" width="280" height="50" as="geometry" />
        </mxCell>
        <mxCell id="Dk59JAwr19zSfOPfUQcK-6" value="Force &amp;lt;-&lt;div&gt;Position -&amp;gt;&lt;/div&gt;" style="text;html=1;align=center;verticalAlign=middle;whiteSpace=wrap;rounded=0;" vertex="1" parent="1">
          <mxGeometry x="340" y="40" width="96" height="30" as="geometry" />
        </mxCell>
        <mxCell id="Dk59JAwr19zSfOPfUQcK-7" value="100Hz (10ms)" style="text;html=1;align=center;verticalAlign=middle;whiteSpace=wrap;rounded=0;" vertex="1" parent="1">
          <mxGeometry x="430" y="40" width="60" height="30" as="geometry" />
        </mxCell>
        <mxCell id="Dk59JAwr19zSfOPfUQcK-11" style="edgeStyle=orthogonalEdgeStyle;rounded=0;orthogonalLoop=1;jettySize=auto;html=1;exitX=1;exitY=0.75;exitDx=0;exitDy=0;entryX=-0.005;entryY=0.934;entryDx=0;entryDy=0;entryPerimeter=0;" edge="1" parent="1" source="e_vF5gCEXvzMb2eq-UHG-4" target="e_vF5gCEXvzMb2eq-UHG-7">
          <mxGeometry relative="1" as="geometry" />
        </mxCell>
        <mxCell id="Dk59JAwr19zSfOPfUQcK-12" style="edgeStyle=orthogonalEdgeStyle;rounded=0;orthogonalLoop=1;jettySize=auto;html=1;exitX=0.75;exitY=1;exitDx=0;exitDy=0;" edge="1" parent="1" source="e_vF5gCEXvzMb2eq-UHG-4">
          <mxGeometry relative="1" as="geometry">
            <mxPoint x="255" y="439" as="targetPoint" />
            <Array as="points">
              <mxPoint x="255" y="430" />
              <mxPoint x="255" y="430" />
            </Array>
          </mxGeometry>
        </mxCell>
        <mxCell id="Dk59JAwr19zSfOPfUQcK-15" style="edgeStyle=orthogonalEdgeStyle;rounded=0;orthogonalLoop=1;jettySize=auto;html=1;entryX=0.214;entryY=1;entryDx=0;entryDy=0;entryPerimeter=0;" edge="1" parent="1" source="e_vF5gCEXvzMb2eq-UHG-14" target="e_vF5gCEXvzMb2eq-UHG-13">
          <mxGeometry relative="1" as="geometry" />
        </mxCell>
        <mxCell id="Dk59JAwr19zSfOPfUQcK-18" style="edgeStyle=orthogonalEdgeStyle;rounded=0;orthogonalLoop=1;jettySize=auto;html=1;exitX=1;exitY=0.75;exitDx=0;exitDy=0;" edge="1" parent="1" source="Dk59JAwr19zSfOPfUQcK-19">
          <mxGeometry relative="1" as="geometry">
            <mxPoint x="637" y="405" as="targetPoint" />
            <Array as="points">
              <mxPoint x="637" y="405" />
            </Array>
          </mxGeometry>
        </mxCell>
        <mxCell id="Dk59JAwr19zSfOPfUQcK-19" value="Mass-Spring-Damper" style="rounded=0;whiteSpace=wrap;html=1;fillColor=#f5f5f5;fontColor=#333333;strokeColor=#666666;textOpacity=50;" vertex="1" parent="1">
          <mxGeometry x="480" y="360" width="180" height="60" as="geometry" />
        </mxCell>
        <mxCell id="Dk59JAwr19zSfOPfUQcK-20" value="System Characteristics&amp;nbsp;&lt;div&gt;(LUT)&lt;/div&gt;" style="rounded=0;whiteSpace=wrap;html=1;fillColor=#f5f5f5;fontColor=#333333;strokeColor=#666666;textOpacity=50;" vertex="1" parent="1">
          <mxGeometry x="480" y="260" width="180" height="80" as="geometry" />
        </mxCell>
        <mxCell id="Dk59JAwr19zSfOPfUQcK-21" value="FiFo&lt;div&gt;&lt;font style=&quot;font-size: 8px;&quot;&gt;(Dynamic Syst Input)&lt;/font&gt;&lt;/div&gt;" style="rounded=0;whiteSpace=wrap;html=1;fillColor=#f5f5f5;fontColor=#333333;strokeColor=#666666;textOpacity=50;" vertex="1" parent="1">
          <mxGeometry x="480" y="200" width="180" height="40" as="geometry" />
        </mxCell>
        <mxCell id="Dk59JAwr19zSfOPfUQcK-22" value="Linkage&lt;div&gt;Slave&lt;/div&gt;" style="rounded=0;whiteSpace=wrap;html=1;" vertex="1" parent="1">
          <mxGeometry x="680" y="200" width="80" height="220" as="geometry" />
        </mxCell>
        <mxCell id="Dk59JAwr19zSfOPfUQcK-23" style="edgeStyle=orthogonalEdgeStyle;rounded=0;orthogonalLoop=1;jettySize=auto;html=1;entryX=0.5;entryY=1;entryDx=0;entryDy=0;" edge="1" parent="1" source="Dk59JAwr19zSfOPfUQcK-24" target="Dk59JAwr19zSfOPfUQcK-31">
          <mxGeometry relative="1" as="geometry" />
        </mxCell>
        <mxCell id="Dk59JAwr19zSfOPfUQcK-24" value="Force Sensor" style="rounded=0;whiteSpace=wrap;html=1;" vertex="1" parent="1">
          <mxGeometry x="480" y="540" width="120" height="60" as="geometry" />
        </mxCell>
        <mxCell id="Dk59JAwr19zSfOPfUQcK-25" value="Motor Position Controller" style="rounded=0;whiteSpace=wrap;html=1;" vertex="1" parent="1">
          <mxGeometry x="640" y="500" width="120" height="100" as="geometry" />
        </mxCell>
        <mxCell id="Dk59JAwr19zSfOPfUQcK-29" style="edgeStyle=orthogonalEdgeStyle;rounded=0;orthogonalLoop=1;jettySize=auto;html=1;exitX=0.75;exitY=1;exitDx=0;exitDy=0;entryX=0.5;entryY=0;entryDx=0;entryDy=0;" edge="1" parent="1" source="Dk59JAwr19zSfOPfUQcK-30" target="Dk59JAwr19zSfOPfUQcK-25">
          <mxGeometry relative="1" as="geometry" />
        </mxCell>
        <mxCell id="Dk59JAwr19zSfOPfUQcK-30" value="Model Protections&lt;div style=&quot;font-size: 8px;&quot;&gt;&lt;font style=&quot;font-size: 8px;&quot;&gt;(Over-force, Pose Limits, ...)&lt;/font&gt;&lt;/div&gt;" style="rounded=0;whiteSpace=wrap;html=1;" vertex="1" parent="1">
          <mxGeometry x="480" y="440" width="280" height="40" as="geometry" />
        </mxCell>
        <mxCell id="Dk59JAwr19zSfOPfUQcK-31" value="Filters" style="rounded=0;whiteSpace=wrap;html=1;" vertex="1" parent="1">
          <mxGeometry x="480" y="500" width="120" height="20" as="geometry" />
        </mxCell>
        <mxCell id="Dk59JAwr19zSfOPfUQcK-32" value="&lt;font style=&quot;font-size: 8px;&quot;&gt;Pos&lt;/font&gt;" style="text;html=1;align=center;verticalAlign=middle;whiteSpace=wrap;rounded=0;" vertex="1" parent="1">
          <mxGeometry x="700" y="390" width="60" height="30" as="geometry" />
        </mxCell>
        <mxCell id="Dk59JAwr19zSfOPfUQcK-35" value="Comms" style="rounded=0;whiteSpace=wrap;html=1;" vertex="1" parent="1">
          <mxGeometry x="480" y="120" width="280" height="50" as="geometry" />
        </mxCell>
        <mxCell id="Dk59JAwr19zSfOPfUQcK-38" style="edgeStyle=orthogonalEdgeStyle;rounded=0;orthogonalLoop=1;jettySize=auto;html=1;entryX=0.214;entryY=1;entryDx=0;entryDy=0;entryPerimeter=0;" edge="1" parent="1" source="Dk59JAwr19zSfOPfUQcK-31" target="Dk59JAwr19zSfOPfUQcK-30">
          <mxGeometry relative="1" as="geometry" />
        </mxCell>
        <mxCell id="pNgse16R72XfRsD5x2nN-2" value="" style="edgeStyle=orthogonalEdgeStyle;rounded=0;orthogonalLoop=1;jettySize=auto;html=1;startArrow=classic;startFill=1;endArrow=none;endFill=0;" edge="1" parent="1" source="pNgse16R72XfRsD5x2nN-1">
          <mxGeometry relative="1" as="geometry">
            <mxPoint x="700" y="440" as="targetPoint" />
          </mxGeometry>
        </mxCell>
        <mxCell id="pNgse16R72XfRsD5x2nN-1" value="&lt;font style=&quot;font-size: 8px;&quot;&gt;Force&lt;/font&gt;" style="text;html=1;align=center;verticalAlign=middle;whiteSpace=wrap;rounded=0;" vertex="1" parent="1">
          <mxGeometry x="670" y="390" width="60" height="30" as="geometry" />
        </mxCell>
        <mxCell id="pNgse16R72XfRsD5x2nN-3" style="edgeStyle=orthogonalEdgeStyle;rounded=0;orthogonalLoop=1;jettySize=auto;html=1;entryX=0.893;entryY=0;entryDx=0;entryDy=0;entryPerimeter=0;" edge="1" parent="1" source="Dk59JAwr19zSfOPfUQcK-32" target="Dk59JAwr19zSfOPfUQcK-30">
          <mxGeometry relative="1" as="geometry" />
        </mxCell>
      </root>
    </mxGraphModel>
  </diagram>
</mxfile>
